<svg width="100" height="24" viewBox="0 0 100 24" fill="none" xmlns="http://www.w3.org/2000/svg">
<path d="M42.755 18L42.041 15.858H37.298L36.584 18H34.051L38.216 6.1H41.123L45.305 18H42.755ZM38.046 13.665H41.31L39.678 8.803L38.046 13.665ZM50.172 18.238C48.8914 18.238 47.8204 17.8073 46.959 16.946C46.109 16.0847 45.684 15.0193 45.684 13.75C45.684 12.4807 46.109 11.4153 46.959 10.554C47.8204 9.69267 48.8914 9.262 50.172 9.262C50.9994 9.262 51.753 9.46033 52.433 9.857C53.113 10.2537 53.6287 10.7863 53.98 11.455L52.093 12.56C51.923 12.2087 51.6624 11.931 51.311 11.727C50.971 11.523 50.5857 11.421 50.155 11.421C49.4977 11.421 48.9537 11.642 48.523 12.084C48.0924 12.5147 47.877 13.07 47.877 13.75C47.877 14.4187 48.0924 14.974 48.523 15.416C48.9537 15.8467 49.4977 16.062 50.155 16.062C50.597 16.062 50.988 15.9657 51.328 15.773C51.6794 15.569 51.94 15.2913 52.11 14.94L54.014 16.028C53.64 16.6967 53.113 17.235 52.433 17.643C51.753 18.0397 50.9994 18.238 50.172 18.238ZM59.0871 18.238C57.8064 18.238 56.7354 17.8073 55.8741 16.946C55.0241 16.0847 54.5991 15.0193 54.5991 13.75C54.5991 12.4807 55.0241 11.4153 55.8741 10.554C56.7354 9.69267 57.8064 9.262 59.0871 9.262C59.9144 9.262 60.6681 9.46033 61.3481 9.857C62.0281 10.2537 62.5438 10.7863 62.8951 11.455L61.0081 12.56C60.8381 12.2087 60.5774 11.931 60.2261 11.727C59.8861 11.523 59.5008 11.421 59.0701 11.421C58.4128 11.421 57.8688 11.642 57.4381 12.084C57.0074 12.5147 56.7921 13.07 56.7921 13.75C56.7921 14.4187 57.0074 14.974 57.4381 15.416C57.8688 15.8467 58.4128 16.062 59.0701 16.062C59.5121 16.062 59.9031 15.9657 60.2431 15.773C60.5944 15.569 60.8551 15.2913 61.0251 14.94L62.9291 16.028C62.5551 16.6967 62.0281 17.235 61.3481 17.643C60.6681 18.0397 59.9144 18.238 59.0871 18.238ZM71.1981 16.946C70.3255 17.8073 69.2601 18.238 68.0021 18.238C66.7441 18.238 65.6788 17.8073 64.8061 16.946C63.9448 16.0733 63.5141 15.008 63.5141 13.75C63.5141 12.492 63.9448 11.4323 64.8061 10.571C65.6788 9.69833 66.7441 9.262 68.0021 9.262C69.2601 9.262 70.3255 9.69833 71.1981 10.571C72.0708 11.4323 72.5071 12.492 72.5071 13.75C72.5071 15.008 72.0708 16.0733 71.1981 16.946ZM66.3531 15.433C66.7951 15.875 67.3448 16.096 68.0021 16.096C68.6595 16.096 69.2091 15.875 69.6511 15.433C70.0931 14.991 70.3141 14.43 70.3141 13.75C70.3141 13.07 70.0931 12.509 69.6511 12.067C69.2091 11.625 68.6595 11.404 68.0021 11.404C67.3448 11.404 66.7951 11.625 66.3531 12.067C65.9225 12.509 65.7071 13.07 65.7071 13.75C65.7071 14.43 65.9225 14.991 66.3531 15.433ZM79.6599 9.5H81.8529V18H79.6599V17.048C79.1272 17.8413 78.2829 18.238 77.1269 18.238C76.1975 18.238 75.4269 17.9263 74.8149 17.303C74.2142 16.6797 73.9139 15.8183 73.9139 14.719V9.5H76.1069V14.447C76.1069 15.0137 76.2599 15.45 76.5659 15.756C76.8719 16.0507 77.2799 16.198 77.7899 16.198C78.3565 16.198 78.8099 16.0223 79.1499 15.671C79.4899 15.3197 79.6599 14.7927 79.6599 14.09V9.5ZM88.5874 9.262C89.5167 9.262 90.2817 9.57367 90.8824 10.197C91.4944 10.8203 91.8004 11.6817 91.8004 12.781V18H89.6074V13.053C89.6074 12.4863 89.4544 12.0557 89.1484 11.761C88.8424 11.455 88.4344 11.302 87.9244 11.302C87.3577 11.302 86.9044 11.4777 86.5644 11.829C86.2244 12.1803 86.0544 12.7073 86.0544 13.41V18H83.8614V9.5H86.0544V10.452C86.5871 9.65867 87.4314 9.262 88.5874 9.262ZM98.5349 11.608H96.6139V15.144C96.6139 15.4387 96.6876 15.654 96.8349 15.79C96.9823 15.926 97.1976 16.0053 97.4809 16.028C97.7643 16.0393 98.1156 16.0337 98.5349 16.011V18C97.0276 18.17 95.9623 18.0283 95.3389 17.575C94.7269 17.1217 94.4209 16.3113 94.4209 15.144V11.608H92.9419V9.5H94.4209V7.783L96.6139 7.12V9.5H98.5349V11.608Z" fill="white"/>
<g filter="url(#filter0_d_1_65)">
<path fill-rule="evenodd" clip-rule="evenodd" d="M14 2C8.48 2 4 6.48 4 12C4 17.52 8.48 22 14 22C19.52 22 24 17.52 24 12C24 6.48 19.52 2 14 2ZM9.07 18.28C9.5 17.38 12.12 16.5 14 16.5C15.88 16.5 18.51 17.38 18.93 18.28C17.57 19.36 15.86 20 14 20C12.14 20 10.43 19.36 9.07 18.28ZM20.36 16.83C18.93 15.09 15.46 14.5 14 14.5C12.54 14.5 9.07 15.09 7.64 16.83C6.62 15.49 6 13.82 6 12C6 7.59 9.59 4 14 4C18.41 4 22 7.59 22 12C22 13.82 21.38 15.49 20.36 16.83V16.83ZM14 6C12.06 6 10.5 7.56 10.5 9.5C10.5 11.44 12.06 13 14 13C15.94 13 17.5 11.44 17.5 9.5C17.5 7.56 15.94 6 14 6ZM14 11C13.17 11 12.5 10.33 12.5 9.5C12.5 8.67 13.17 8 14 8C14.83 8 15.5 8.67 15.5 9.5C15.5 10.33 14.83 11 14 11Z" fill="white"/>
<mask id="mask0_1_65" style="mask-type:alpha" maskUnits="userSpaceOnUse" x="4" y="2" width="20" height="20">
<path fill-rule="evenodd" clip-rule="evenodd" d="M14 2C8.48 2 4 6.48 4 12C4 17.52 8.48 22 14 22C19.52 22 24 17.52 24 12C24 6.48 19.52 2 14 2ZM9.07 18.28C9.5 17.38 12.12 16.5 14 16.5C15.88 16.5 18.51 17.38 18.93 18.28C17.57 19.36 15.86 20 14 20C12.14 20 10.43 19.36 9.07 18.28ZM20.36 16.83C18.93 15.09 15.46 14.5 14 14.5C12.54 14.5 9.07 15.09 7.64 16.83C6.62 15.49 6 13.82 6 12C6 7.59 9.59 4 14 4C18.41 4 22 7.59 22 12C22 13.82 21.38 15.49 20.36 16.83V16.83ZM14 6C12.06 6 10.5 7.56 10.5 9.5C10.5 11.44 12.06 13 14 13C15.94 13 17.5 11.44 17.5 9.5C17.5 7.56 15.94 6 14 6ZM14 11C13.17 11 12.5 10.33 12.5 9.5C12.5 8.67 13.17 8 14 8C14.83 8 15.5 8.67 15.5 9.5C15.5 10.33 14.83 11 14 11Z" fill="white"/>
</mask>
<g mask="url(#mask0_1_65)">
</g>
</g>
<defs>
<filter id="filter0_d_1_65" x="-2" y="0" width="32" height="32" filterUnits="userSpaceOnUse" color-interpolation-filters="sRGB">
<feFlood flood-opacity="0" result="BackgroundImageFix"/>
<feColorMatrix in="SourceAlpha" type="matrix" values="0 0 0 0 0 0 0 0 0 0 0 0 0 0 0 0 0 0 127 0" result="hardAlpha"/>
<feOffset dy="4"/>
<feGaussianBlur stdDeviation="2"/>
<feComposite in2="hardAlpha" operator="out"/>
<feColorMatrix type="matrix" values="0 0 0 0 0 0 0 0 0 0 0 0 0 0 0 0 0 0 0.25 0"/>
<feBlend mode="normal" in2="BackgroundImageFix" result="effect1_dropShadow_1_65"/>
<feBlend mode="normal" in="SourceGraphic" in2="effect1_dropShadow_1_65" result="shape"/>
</filter>
</defs>
</svg>
